{
	"patcher" : 	{
		"fileversion" : 1,
		"rect" : [ 10.0, 59.0, 600.0, 426.0 ],
		"bglocked" : 0,
		"defrect" : [ 10.0, 59.0, 600.0, 426.0 ],
		"openrect" : [ 0.0, 0.0, 0.0, 0.0 ],
		"openinpresentation" : 0,
		"default_fontsize" : 12.0,
		"default_fontface" : 0,
		"default_fontname" : "Arial",
		"gridonopen" : 0,
		"gridsize" : [ 15.0, 15.0 ],
		"gridsnaponopen" : 0,
		"toolbarvisible" : 1,
		"boxanimatetime" : 200,
		"imprint" : 0,
		"metadata" : [  ],
		"boxes" : [ 			{
				"box" : 				{
					"maxclass" : "newobj",
					"text" : "r #1_relative_movement",
					"id" : "obj-1",
					"fontsize" : 9.0,
					"patching_rect" : [ 152.0, 134.0, 125.0, 17.0 ],
					"hidden" : 1,
					"numinlets" : 0,
					"numoutlets" : 1,
					"fontname" : "Arial",
					"outlettype" : [ "" ]
				}

			}
, 			{
				"box" : 				{
					"maxclass" : "umenu",
					"id" : "obj-2",
					"fontsize" : 10.0,
					"patching_rect" : [ 127.0, 163.0, 94.0, 18.0 ],
					"numinlets" : 1,
					"prefix" : "Macintosh HD:/Users/zevinpolzin/Documents/DesktopMAX7106/gamelan/samples/gongs/",
					"items" : [ "high_gong.wav", ",", "low_gong.wav", ",", "low_gong2.wav", ",", "timekeeper.wav" ],
					"numoutlets" : 3,
					"fontname" : "Arial",
					"types" : [  ],
					"outlettype" : [ "int", "", "" ]
				}

			}
, 			{
				"box" : 				{
					"maxclass" : "newobj",
					"text" : "buffer~ #1_relative_movement_buffer",
					"id" : "obj-3",
					"fontsize" : 9.0,
					"patching_rect" : [ 127.0, 204.0, 188.0, 17.0 ],
					"numinlets" : 1,
					"numoutlets" : 2,
					"fontname" : "Arial",
					"outlettype" : [ "float", "bang" ]
				}

			}
, 			{
				"box" : 				{
					"maxclass" : "newobj",
					"text" : "prepend replace",
					"id" : "obj-4",
					"fontsize" : 9.0,
					"patching_rect" : [ 127.0, 183.0, 81.0, 17.0 ],
					"numinlets" : 1,
					"numoutlets" : 1,
					"fontname" : "Arial",
					"outlettype" : [ "" ]
				}

			}
, 			{
				"box" : 				{
					"maxclass" : "inlet",
					"id" : "obj-5",
					"patching_rect" : [ 127.0, 67.0, 15.0, 15.0 ],
					"numinlets" : 0,
					"numoutlets" : 1,
					"outlettype" : [ "" ],
					"comment" : ""
				}

			}
 ],
		"lines" : [ 			{
				"patchline" : 				{
					"source" : [ "obj-4", 0 ],
					"destination" : [ "obj-3", 0 ],
					"hidden" : 0,
					"midpoints" : [  ]
				}

			}
, 			{
				"patchline" : 				{
					"source" : [ "obj-2", 1 ],
					"destination" : [ "obj-4", 0 ],
					"hidden" : 0,
					"midpoints" : [  ]
				}

			}
, 			{
				"patchline" : 				{
					"source" : [ "obj-1", 0 ],
					"destination" : [ "obj-2", 0 ],
					"hidden" : 0,
					"midpoints" : [ 161.5, 157.0, 136.5, 157.0 ]
				}

			}
, 			{
				"patchline" : 				{
					"source" : [ "obj-5", 0 ],
					"destination" : [ "obj-2", 0 ],
					"hidden" : 0,
					"midpoints" : [  ]
				}

			}
 ]
	}

}
